<?xml version="1.0" encoding="UTF-8" standalone="no"?>
<!-- Created with Inkscape (http://www.inkscape.org/) -->

<svg
   xmlns:osb="http://www.openswatchbook.org/uri/2009/osb"
   xmlns:dc="http://purl.org/dc/elements/1.1/"
   xmlns:cc="http://creativecommons.org/ns#"
   xmlns:rdf="http://www.w3.org/1999/02/22-rdf-syntax-ns#"
   xmlns:svg="http://www.w3.org/2000/svg"
   xmlns="http://www.w3.org/2000/svg"
   xmlns:sodipodi="http://sodipodi.sourceforge.net/DTD/sodipodi-0.dtd"
   xmlns:inkscape="http://www.inkscape.org/namespaces/inkscape"
   width="424.93301"
   height="117.79356"
   viewBox="0 0 112.43018 31.166214"
   version="1.1"
   id="svg8"
   inkscape:version="0.92.2 (5c3e80d, 2017-08-06)"
   sodipodi:docname="toolit_logo.svg">
  <defs
     id="defs2">
    <linearGradient
       id="linearGradient4573"
       osb:paint="solid">
      <stop
         style="stop-color:#003700;stop-opacity:1;"
         offset="0"
         id="stop4571" />
    </linearGradient>
  </defs>
  <sodipodi:namedview
     id="base"
     pagecolor="#ffffff"
     bordercolor="#666666"
     borderopacity="1.0"
     inkscape:pageopacity="0.0"
     inkscape:pageshadow="2"
     inkscape:zoom="1.4"
     inkscape:cx="108.09845"
     inkscape:cy="-0.097060714"
     inkscape:document-units="px"
     inkscape:current-layer="layer1"
     showgrid="false"
     units="px"
     showguides="false"
     inkscape:measure-start="0,0"
     inkscape:measure-end="0,0"
     inkscape:window-width="1920"
     inkscape:window-height="1017"
     inkscape:window-x="1912"
     inkscape:window-y="-8"
     inkscape:window-maximized="1"
     fit-margin-top="20"
     fit-margin-left="20"
     fit-margin-bottom="20"
     fit-margin-right="20" />
  <metadata
     id="metadata5">
    <rdf:RDF>
      <cc:Work
         rdf:about="">
        <dc:format>image/svg+xml</dc:format>
        <dc:type
           rdf:resource="http://purl.org/dc/dcmitype/StillImage" />
        <dc:title />
      </cc:Work>
    </rdf:RDF>
  </metadata>
  <g
     inkscape:label="Layer 1"
     inkscape:groupmode="layer"
     id="layer1"
     transform="translate(-10.504796,-227.30718)">
    <path
       inkscape:connector-curvature="0"
       id="path44"
       style="font-style:normal;font-variant:normal;font-weight:normal;font-stretch:normal;font-size:medium;line-height:3.25;font-family:'Bauhaus 93';-inkscape-font-specification:'Bauhaus 93, ';letter-spacing:0px;word-spacing:0px;fill:#6c5d53;fill-opacity:1;stroke:none;stroke-width:0.26458332"
       d="m 63.879159,235.8476 v 4.73769 h 2.083594 v 4.89893 h -2.083594 q 0,1.47588 0.458887,2.03398 0.471289,0.55811 1.711524,0.55811 v 4.87412 q -0.359668,0.0124 -0.533301,0.0124 -1.575098,0 -2.976563,-0.73174 -1.389062,-0.73174 -2.232421,-1.98437 -1.066602,-1.59991 -1.066602,-4.24161 V 235.8476 Z" />
    <path
       inkscape:connector-curvature="0"
       id="path46"
       style="font-style:normal;font-variant:normal;font-weight:normal;font-stretch:normal;font-size:medium;line-height:3.25;font-family:'Bauhaus 93';-inkscape-font-specification:'Bauhaus 93, ';letter-spacing:0px;word-spacing:0px;fill:#6c5d53;fill-opacity:1;stroke:none;stroke-width:0.26458332"
       d="m 74.09869,240.15121 q 2.629297,0 4.502051,1.89756 1.885156,1.88515 1.885156,4.52685 0,2.67891 -1.90996,4.56407 -1.897559,1.88515 -4.588868,1.88515 -2.691308,0 -4.601269,-1.88515 -1.909961,-1.89756 -1.909961,-4.56407 0,-2.71611 1.909961,-4.56406 1.909961,-1.86035 4.71289,-1.86035 z m -0.124023,4.57646 q -0.744141,0 -1.265039,0.54571 -0.520898,0.5333 -0.520898,1.31464 0,0.76895 0.520898,1.31465 0.533301,0.54571 1.265039,0.54571 0.744141,0 1.265039,-0.54571 0.533301,-0.5457 0.533301,-1.31465 0,-0.78134 -0.520899,-1.31464 -0.520898,-0.54571 -1.277441,-0.54571 z" />
    <path
       inkscape:connector-curvature="0"
       id="path48"
       style="font-style:normal;font-variant:normal;font-weight:normal;font-stretch:normal;font-size:medium;line-height:3.25;font-family:'Bauhaus 93';-inkscape-font-specification:'Bauhaus 93, ';letter-spacing:0px;word-spacing:0px;fill:#6c5d53;fill-opacity:1;stroke:none;stroke-width:0.26458332"
       d="m 88.286972,240.15121 q 2.629296,0 4.50205,1.89756 1.885156,1.88515 1.885156,4.52685 0,2.67891 -1.90996,4.56407 -1.897559,1.88515 -4.588868,1.88515 -2.691308,0 -4.601269,-1.88515 -1.909961,-1.89756 -1.909961,-4.56407 0,-2.71611 1.909961,-4.56406 1.909961,-1.86035 4.712891,-1.86035 z m -0.124024,4.57646 q -0.74414,0 -1.265039,0.54571 -0.520898,0.5333 -0.520898,1.31464 0,0.76895 0.520898,1.31465 0.533301,0.54571 1.265039,0.54571 0.744141,0 1.265039,-0.54571 0.533301,-0.5457 0.533301,-1.31465 0,-0.78134 -0.520898,-1.31464 -0.520899,-0.54571 -1.277442,-0.54571 z" />
    <path
       inkscape:connector-curvature="0"
       id="path50"
       style="font-style:normal;font-variant:normal;font-weight:normal;font-stretch:normal;font-size:medium;line-height:3.25;font-family:'Bauhaus 93';-inkscape-font-specification:'Bauhaus 93, ';letter-spacing:0px;word-spacing:0px;fill:#6c5d53;fill-opacity:1;stroke:none;stroke-width:0.26458332"
       d="m 101.24742,235.8476 v 16.92919 H 96.608943 V 235.8476 Z" />
    <path
       inkscape:connector-curvature="0"
       id="path52"
       style="font-style:normal;font-variant:normal;font-weight:normal;font-stretch:normal;font-size:medium;line-height:3.25;font-family:'Bauhaus 93';-inkscape-font-specification:'Bauhaus 93, ';letter-spacing:0px;word-spacing:0px;fill:#ff6600;fill-opacity:1;stroke:none;stroke-width:0.26458332"
       d="m 108.58961,240.41166 v 12.36513 h -4.63848 v -12.36513 z m -2.30684,-5.51904 q 0.94258,0 1.62471,0.66972 0.69453,0.65733 0.69453,1.5627 0,0.96738 -0.65732,1.5875 -0.64492,0.62011 -1.66192,0.62011 -1.01699,0 -1.67431,-0.62011 -0.64492,-0.62012 -0.64492,-1.5875 0,-0.90537 0.68212,-1.5627 0.69454,-0.66972 1.63711,-0.66972 z" />
    <path
       inkscape:connector-curvature="0"
       id="path54"
       style="font-style:normal;font-variant:normal;font-weight:normal;font-stretch:normal;font-size:medium;line-height:3.25;font-family:'Bauhaus 93';-inkscape-font-specification:'Bauhaus 93, ';letter-spacing:0px;word-spacing:0px;fill:#ff6600;fill-opacity:1;stroke:none;stroke-width:0.26458332"
       d="m 115.47291,235.8476 v 4.73769 h 2.08359 v 4.89893 h -2.08359 q 0,1.47588 0.45889,2.03398 0.47129,0.55811 1.71152,0.55811 v 4.87412 q -0.35967,0.0124 -0.5333,0.0124 -1.5751,0 -2.97656,-0.73174 -1.38907,-0.73174 -2.23243,-1.98437 -1.0666,-1.59991 -1.0666,-4.24161 V 235.8476 Z" />
    <g
       style="clip-rule:evenodd;fill:#d40000;fill-rule:evenodd"
       id="g3741"
       transform="matrix(0.26458333,0,0,0.26458333,37.723579,205.57775)">
      <g
         id="g3728"
         transform="matrix(0.43238101,0,0,0.43238101,136.01032,99.601903)"
         style="fill:#ff6600">
        <g
           id="g3726"
           transform="translate(-508.81052,3.3039644)"
           style="fill:#ff6600">
          <path
             id="path3724"
             style="fill:#ff6600"
             d="M 125.25,47.844 C 141.085,20.752 170.482,2.536 204.1,2.536 c 40.025,0 74.067,25.821 86.361,61.701 3.994,-0.844 8.136,-1.287 12.38,-1.287 32.977,0 59.75,26.773 59.75,59.75 0,32.977 -26.773,59.75 -59.75,59.75 l -247.37,0.005 c -29.191,0 -52.891,-23.7 -52.891,-52.891 0,-29.191 23.7,-52.891 52.891,-52.891 3.614,0 7.144,0.363 10.555,1.056 12.119,-18.061 32.726,-29.957 56.09,-29.957 1.051,0 2.096,0.024 3.134,0.072 z"
             inkscape:connector-curvature="0" />
        </g>
      </g>
    </g>
    <g
       transform="matrix(0.01283431,0,0,0.01283431,40.84044,241.65969)"
       id="layer1-7"
       style="fill:#ffffff">
      <path
         d="m -304,-312.85 c -28.306,-0.63933 -56.295,30.095 -45.384,59.051 9.941,22.046 -31.466,33.404 -48.035,43.762 -58.499,22.387 -97.839,72.838 -142.39,114.23 -38.547,38.99 -83.599,74.322 -105.06,126.5 -15.246,34.535 -21.84,72.362 -21.159,109.4 0.51501,40.715 8.594,81.016 20.584,119.82 0.91034,-19.377 -6.3635,-39.9 -0.0439,-59.758 12.549,-58.196 44.93,-115.47 96.469,-147.31 22.629,-13.759 52.31,-16.008 75.365,-1.9712 10.951,3.4994 22.108,2.6065 32.188,-1.3423 l 620.29,620.29 c 16.449,16.449 42.933,16.449 59.382,0 l 38.545,-38.545 c 16.449,-16.449 16.449,-42.933 0,-59.382 l -619.31,-619.32 c 12.348,-19.881 5.6153,-44.305 3.584,-66.219 4.2,-31.366 34.975,-47.752 56.677,-66.655 12.179,15.186 31.661,27.07 51.477,18.768 30.238,-8.7764 44.873,-53.124 18.545,-74.178 -24.347,-23.567 -47.181,-48.885 -72.541,-71.284 -6.0915,-3.8965 -12.639,-5.7153 -19.171,-5.8628 z m 454.8,31.312 c -2.096,0.001 -4.1918,0.0416 -6.2889,0.12172 -73.419,2.806 -136.45,53.111 -155.46,124.08 -7.7631,29.243 -7.464,60.042 0.86556,89.129 l -159.33,159.33 97.928,97.93 151.31,-151.32 c 8.9202,4.1964 18.193,7.5974 27.711,10.164 89.396,23.954 181.28,-29.098 205.24,-118.49 3.7618,-14.135 5.6566,-28.702 5.6363,-43.329 l -121.21,69.982 -83.787,-145.12 121.08,-69.904 c -12.613,-7.3469 -26.133,-13.014 -40.215,-16.858 -14.189,-3.8024 -28.809,-5.7198 -43.481,-5.7107 z m -452.76,505.21 -190.74,190.74 c -4.256,-1.6559 -8.5914,-3.1003 -12.99,-4.3278 -73.879,-19.795 -149.82,24.048 -169.61,97.927 -3.1093,11.682 -4.6756,23.721 -4.6592,35.809 l 100.17,-57.834 69.245,119.94 -100.07,57.773 c 10.426,6.0714 21.6,10.754 33.24,13.93 73.88,19.795 149.82,-24.05 169.61,-97.93 4.9726,-18.689 5.9758,-38.213 2.9449,-57.313 l 200.79,-200.79 -97.927,-97.927 z"
         id="path4138"
         inkscape:connector-curvature="0"
         style="fill:#ffffff" />
    </g>
  </g>
</svg>
